<?xml version="1.0" encoding="UTF-8"?>
<svg id="Layer_1" xmlns="http://www.w3.org/2000/svg" version="1.1" viewBox="0 0 312.9 267.5">
  <!-- Generator: Adobe Illustrator 29.0.1, SVG Export Plug-In . SVG Version: 2.1.0 Build 192)  -->
  <defs>
    <style>
      .st0, .st1 {
        isolation: isolate;
      }

      .st1 {
        fill: #ff6f61;
        font-family: Cinzel-SemiBold, Cinzel;
        font-size: 100px;
        font-weight: 600;
      }

      .st2 {
        fill: #1a6566;
      }
    </style>
  </defs>
  <path class="st2" d="M11.5,82.7c.9,45.2-.7,86.5,0,131.6,35.8,3.3,71.3,10.6,104.9,23.2l1.5-.3c-7.7-3.5-14.8-8.2-22.5-11.5-8.5-3.7-18.4-6.9-27.3-9.5-16-4.6-33-8.3-49.6-9.3V43.8c1.3.2,2.8.9,4.1,2,3.1,2.5,4.9,6.4,4.9,10.4l.2,140.4c9.1,1.9,18.3,3.2,27.3,5.5,26.3,6.7,51.1,19.2,73.2,34.8.3.1.4-.5.2-.7-.2-.4-4-5-4.7-5.7-11.1-12.5-29.3-24.4-44.7-30.9-14.1-5.9-29.1-9-44.1-11.9V27.9c.2,0,.5,0,.9.1,4.9,1,8.4,5.4,8.5,10.5,1.2,46.4.3,93.1.6,139.6,39.3,5.1,71.3,22.8,92.2,56.7,2.2,3.6,7.1,14.7,9.2,16.6.5.5,3.2,2.1,3.5,1.7,0-12.3-5.9-23.9-12.4-34.1-15.1-23.6-40.8-41-68.1-47V0c6.7.8,11.1,6.8,11.9,13.2v150.1c.4.9,4,1.4,5.2,1.8,32.6,10.4,56.6,34,70.1,65.2,2.6-4.1,4.2-8.6,6.6-12.8,14.7-25.9,40.1-46.3,69.2-53.4V13.7c.8-6.4,4.8-12.4,11.5-13.7v172.1c-27.8,7.1-52.8,24-68.3,48.3-6.4,9.9-11.5,20.8-12.2,32.8,5.9-.7,7.1-7.9,9.7-12.4,15.1-26.9,36-44.9,65.1-55.2,9.8-3.5,20.3-6.2,30.6-7.4,0-46.7,0-74.8.4-135.2,0-5,2.1-9.9,5.9-13.3.9-.8,1.7-1.4,2.4-1.7l.5,159.6c-32.6,5-64.6,18.1-87.6,42.2l-6.2,8c30-21.5,65-36.5,101.9-40.8V56.7c.3-8.2,4.5-11.5,8.2-12.9l.5,162.6-21.3,3.1c-23.2,4.8-46.3,11.2-67.4,22.1l-8.6,5.6c3.5-.4,6.9-2.3,10.2-3.5,30.4-10.4,62.3-16.1,94.2-19.4.2-35.2-.1-66.6,0-101.8,0-1.5,0-3.8,0-3.8,0,0,.2-23.5.1-33.1,0-7.2,4.2-13.6,10.9-16.4h0v165.9l-1.2.8c-26.2,1.5-52.2,6.3-77.4,13.1-16.7,4.5-34.2,9.9-49.8,17.3-7,3.3-14.6,9.4-22.1,10.7-15.2,2.8-23.2-5.9-35.8-11.7-15.4-7.1-33.3-12.5-49.8-16.8-25.1-6.6-50.8-11.1-76.7-12.8L.3,59.7c.7.4,1.5.8,2.3,1.1,5.1,2.1,9,8.4,8.9,13.9"/>
  <g class="st0">
    <text class="st1" transform="translate(99.3 133.7)"><tspan x="0" y="0">LS</tspan></text>
  </g>
</svg>