<?xml version="1.0" encoding="UTF-8"?>
<svg id="Layer_1" data-name="Layer 1" xmlns="http://www.w3.org/2000/svg" viewBox="0 0 493.88 142.29">
  <defs>
    <style>
      .cls-1 {
        letter-spacing: 0em;
      }

      .cls-2 {
        fill: none;
        stroke: #1a6566;
        stroke-miterlimit: 10;
      }

      .cls-3 {
        letter-spacing: 0em;
      }

      .cls-4 {
        letter-spacing: -.01em;
      }

      .cls-5 {
        fill: #ff6f61;
        font-size: 43.51px;
      }

      .cls-5, .cls-6 {
        font-family: Cinzel-SemiBold, Cinzel;
        font-weight: 600;
      }

      .cls-7 {
        letter-spacing: 0em;
      }

      .cls-8 {
        letter-spacing: 0em;
      }

      .cls-6 {
        font-size: 72px;
      }

      .cls-6, .cls-9 {
        fill: #1a6566;
      }
    </style>
  </defs>
  <g>
    <path class="cls-9" d="M5,48.94c.37,19.64-.3,37.63,0,57.27,15.57,1.42,31.01,4.63,45.64,10.08l.66-.12c-3.36-1.51-6.42-3.55-9.8-5.02-3.69-1.6-8.01-3.01-11.88-4.13-6.95-2.01-14.36-3.6-21.59-4.05V32c.58.08,1.21.39,1.78.85,1.37,1.08,2.12,2.78,2.12,4.52l.09,61.07c3.97.82,7.96,1.39,11.9,2.38,11.46,2.9,22.22,8.35,31.82,15.13.15.05.16-.21.11-.32-.09-.19-1.75-2.16-2.05-2.49-4.82-5.44-12.75-10.64-19.44-13.45-6.14-2.58-12.66-3.91-19.19-5.16V25.08c.09,0,.22.02.37.05,2.13.46,3.65,2.37,3.71,4.55.51,20.2.13,40.5.25,60.74,17.08,2.23,31.04,9.93,40.12,24.69.95,1.55,3.11,6.38,4.01,7.24.21.2,1.38.91,1.52.75.01-5.35-2.59-10.42-5.4-14.82-6.55-10.26-17.77-17.83-29.65-20.44V12.96c2.89.33,4.82,2.94,5.19,5.74l.03,65.31c.14.4,1.71.61,2.25.78,14.16,4.54,24.64,14.78,30.5,28.34,1.13-1.76,1.85-3.73,2.88-5.55,6.4-11.25,17.45-20.14,30.09-23.24l.02-65.43c.31-2.79,2.08-5.41,4.97-5.95v74.86c-12.1,3.09-22.99,10.44-29.73,21.01-2.76,4.33-5,9.04-5.32,14.26,2.57-.32,3.09-3.42,4.21-5.41,6.58-11.68,15.67-19.53,28.34-24.02,4.26-1.51,8.81-2.7,13.31-3.24,0-20.33-.03-32.55.19-58.81.02-2.2.91-4.33,2.55-5.79.38-.34.74-.6,1.05-.73l.23,69.46c-14.2,2.19-28.08,7.88-38.1,18.37l-2.7,3.46c13.05-9.35,28.27-15.87,44.35-17.74v-61.02c.12-3.55,1.98-4.99,3.57-5.61l.23,70.76-9.25,1.35c-10.08,2.11-20.16,4.86-29.31,9.63l-3.75,2.41c1.53-.15,2.98-1.02,4.43-1.52,13.21-4.55,27.09-7.03,40.99-8.45.07-15.32-.06-28.99,0-44.31,0-.67,0-1.67,0-1.67,0,0,.07-10.24.05-14.38-.02-3.12,1.85-5.93,4.72-7.14h0s0,72.16,0,72.16l-.54.32c-11.4.65-22.69,2.75-33.69,5.69-7.25,1.94-14.9,4.3-21.67,7.54-3.04,1.45-6.37,4.07-9.61,4.67-6.6,1.23-10.08-2.57-15.55-5.11-6.72-3.11-14.5-5.44-21.67-7.33-10.91-2.87-22.09-4.81-33.38-5.57L.11,38.93c.32.17.66.33,1,.47,2.21.9,3.9,3.66,3.89,6.05"/>
    <text class="cls-5" transform="translate(43.21 71.15)"><tspan x="0" y="0">LS</tspan></text>
  </g>
  <text class="cls-6" transform="translate(174.2 88.35)"><tspan x="0" y="0">Lit</tspan><tspan class="cls-7" x="110.66" y="0">S</tspan><tspan class="cls-3" x="149.69" y="0">h</tspan><tspan class="cls-1" x="203.32" y="0">e</tspan><tspan class="cls-4" x="243.07" y="0">l</tspan><tspan class="cls-8" x="281.3" y="0">f</tspan></text>
  <line class="cls-2" x1="160.48" x2="160.48" y2="142.29"/>
</svg>